<?xml version="1.0" encoding="utf-8"?>
<!-- Generator: Adobe Illustrator 15.1.0, SVG Export Plug-In . SVG Version: 6.00 Build 0)  -->
<!DOCTYPE svg PUBLIC "-//W3C//DTD SVG 1.1//EN" "http://www.w3.org/Graphics/SVG/1.1/DTD/svg11.dtd">
<svg version="1.1" id="图层_1" xmlns="http://www.w3.org/2000/svg" xmlns:xlink="http://www.w3.org/1999/xlink" x="0px" y="0px"
	 width="64px" height="64px" viewBox="0 0 64 64" enable-background="new 0 0 64 64" xml:space="preserve">
<g>
	<path fill-rule="evenodd" clip-rule="evenodd" d="M52.676,3.838l1.215,3.345c0,0-1.824-0.152-1.824,4.714
		c0,4.866,1.384,12.24-9.884,15.815c-4.329,1.373-10.46,1.351-10.339,11.556c0.096,8.058-2.433,12.774-10.796,14.598
		c-1.661,0.364-5.474,0.305-7.907,4.716c-0.958,1.735-5.322,2.736-3.801-1.065c0.631-1.579,3.224-5.486,10.492-7.146
		c4.747-1.086,8.363-2.738,8.515-10.95c0.031-1.679-0.912-11.708,9.124-14.293c2.124-0.547,13.077-1.521,11.1-11.861
		C48.396,12.357,48.418,4.75,52.676,3.838z"/>
</g>
</svg>
